#Generated by the ZED SDK.
v -0.473444 0.138764 -2.883980 0.509804 0.517647 0.533333
v -0.465785 0.138301 -2.881724 0.509804 0.517647 0.533333
v -0.475010 0.139292 -2.891174 0.498039 0.505882 0.529412
v -0.477959 0.160501 -2.881809 0.498039 0.513726 0.529412
v -0.477199 0.139691 -2.892855 0.498039 0.505882 0.529412
v -0.474983 0.161325 -2.892036 0.525490 0.537255 0.556863
v -0.476654 0.120711 -2.888794 0.450980 0.462745 0.462745
v -0.469160 0.119797 -2.888273 0.415686 0.415686 0.439216
v -0.467811 0.131512 -2.885489 0.454902 0.454902 0.474510
v -0.476658 0.101314 -2.887463 0.435294 0.443137 0.447059
v -0.469859 0.098604 -2.882664 0.372549 0.376471 0.380392
v -0.461845 0.084811 -2.881062 0.380392 0.380392 0.384314
v -0.474481 0.085464 -2.878535 0.411765 0.415686 0.419608
v -0.440052 0.091635 -2.886101 0.380392 0.376471 0.396078
v -0.448738 0.092343 -2.880521 0.384314 0.384314 0.396078
v -0.455345 0.082488 -2.877433 0.376471 0.376471 0.380392
v -0.442237 0.089989 -2.880464 0.380392 0.376471 0.396078
v -0.431393 0.079246 -2.879139 0.290196 0.290196 0.309804
v -0.433344 0.091841 -2.899057 0.384314 0.388235 0.400000
v -0.417547 0.073508 -2.900966 0.329412 0.325490 0.341176
v -0.460630 0.076939 -2.875432 0.384314 0.388235 0.388235
v -0.417695 0.057927 -2.882694 0.407843 0.407843 0.415686
v -0.402174 0.055805 -2.887154 0.203922 0.203922 0.211765
v -0.400202 0.060380 -2.900239 0.223529 0.219608 0.227451
v -0.441387 0.039060 -2.878258 0.380392 0.384314 0.384314
v -0.419440 0.038814 -2.886560 0.286275 0.294118 0.294118
v -0.403583 0.041911 -2.880143 0.254902 0.254902 0.262745
v -0.400535 0.051538 -2.882881 0.211765 0.211765 0.219608
v -0.381757 0.048845 -2.900338 0.274510 0.278431 0.282353
v -0.381185 0.044950 -2.880098 0.270588 0.274510 0.282353
v -0.459526 0.019572 -2.875168 0.211765 0.215686 0.227451
v -0.435243 0.019076 -2.894086 0.203922 0.203922 0.215686
v -0.421159 0.019543 -2.897465 0.200000 0.203922 0.215686
v -0.408284 0.019572 -2.891516 0.184314 0.184314 0.196078
v -0.400497 0.033079 -2.878807 0.219608 0.215686 0.227451
v -0.400556 0.019570 -2.879169 0.254902 0.254902 0.262745
v -0.441241 0.002165 -2.890194 0.474510 0.478431 0.474510
v -0.419350 0.000204 -2.889900 0.419608 0.423529 0.423529
v -0.409537 -0.000202 -2.881193 0.458824 0.462745 0.458824
v -0.419273 0.081287 -2.919581 0.254902 0.254902 0.274510
v -0.396620 0.062442 -2.926249 0.223529 0.223529 0.235294
v -0.360177 0.038840 -2.935436 0.243137 0.239216 0.250980
v -0.358209 0.030869 -2.881331 0.458824 0.458824 0.466667
v -0.340188 0.028359 -2.890611 0.427451 0.423529 0.431373
v -0.341120 0.034464 -2.924256 0.384314 0.384314 0.392157
v -0.407793 0.074327 -2.945971 0.266667 0.258824 0.274510
v -0.424892 0.094187 -2.959272 0.160784 0.168627 0.180392
v -0.380898 0.050847 -2.949126 0.262745 0.262745 0.270588
v -0.409235 0.079144 -2.980866 0.250980 0.247059 0.258824
v -0.372107 0.043043 -2.981966 0.227451 0.223529 0.239216
v -0.358317 0.036563 -2.975147 0.309804 0.305882 0.321569
v -0.342329 0.036036 -2.974225 0.317647 0.317647 0.329412
v -0.332258 0.041364 -2.960034 0.329412 0.329412 0.337255
v -0.384459 0.107020 -2.983195 0.215686 0.215686 0.223529
v -0.384076 0.099518 -2.981906 0.215686 0.215686 0.223529
v -0.376069 0.095991 -2.972776 0.215686 0.203922 0.227451
v -0.378628 0.089668 -2.980473 0.227451 0.219608 0.235294
v -0.367671 0.081849 -2.980649 0.301961 0.290196 0.309804
v -0.343544 0.091489 -2.960535 0.317647 0.313726 0.329412
v -0.338438 0.080618 -2.962109 0.172549 0.164706 0.184314
v -0.391817 0.059899 -2.979190 0.223529 0.219608 0.231373
v -0.340297 0.071975 -2.980132 0.239216 0.231373 0.247059
v -0.393761 0.098977 -2.996853 0.270588 0.266667 0.286275
v -0.413013 0.085201 -2.999045 0.278431 0.274510 0.278431
v -0.399139 0.097186 -3.003890 0.286275 0.282353 0.298039
v -0.395146 0.093311 -3.002455 0.286275 0.282353 0.298039
v -0.381310 0.082109 -2.996620 0.270588 0.262745 0.270588
v -0.396668 0.063075 -3.020871 0.211765 0.207843 0.223529
v -0.342181 0.060431 -3.017326 0.345098 0.341176 0.352941
v -0.340649 0.066194 -3.000245 0.294118 0.286275 0.298039
v -0.379422 0.050005 -2.999795 0.235294 0.231373 0.243137
v -0.361007 0.040129 -3.000379 0.231373 0.223529 0.239216
v -0.344205 0.039266 -3.004144 0.290196 0.286275 0.301961
v -0.334101 0.044271 -2.998600 0.243137 0.235294 0.250980
v -0.416855 0.090483 -3.019951 0.211765 0.207843 0.219608
v -0.421130 0.093889 -3.030144 0.211765 0.207843 0.219608
v -0.397597 0.090367 -3.020147 0.337255 0.329412 0.341176
v -0.405724 0.094425 -3.020414 0.250980 0.243137 0.258824
v -0.380986 0.082879 -3.021026 0.298039 0.298039 0.309804
v -0.359658 0.067919 -3.021169 0.294118 0.286275 0.305882
v -0.330784 0.057967 -2.998593 0.317647 0.305882 0.325490
v -0.343075 0.056970 -3.024529 0.294118 0.290196 0.301961
v -0.380227 0.053420 -3.019842 0.211765 0.207843 0.219608
v -0.359223 0.044700 -3.014182 0.200000 0.192157 0.211765
v -0.341623 0.044005 -3.010509 0.184314 0.176471 0.196078
v -0.417015 0.088335 -3.040278 0.274510 0.270588 0.282353
v -0.382227 0.077644 -3.041433 0.372549 0.364706 0.376471
v -0.406452 0.093794 -3.039579 0.262745 0.258824 0.278431
v -0.398268 0.060943 -3.040927 0.325490 0.321569 0.333333
v -0.360505 0.060429 -3.038979 0.286275 0.282353 0.298039
v -0.348313 0.058829 -3.033522 0.345098 0.341176 0.349020
v -0.379138 0.060800 -3.039293 0.200000 0.196078 0.207843
v -0.463892 0.002059 -2.872525 0.537255 0.537255 0.545098
v -0.461160 -0.003990 -2.879537 0.560784 0.564706 0.568627
v -0.479770 0.159541 -2.864683 0.513726 0.525490 0.545098
v -0.482918 0.136620 -2.862863 0.478431 0.490196 0.517647
v -0.478309 0.138922 -2.889490 0.494118 0.505882 0.529412
v -0.480377 0.119852 -2.880530 0.462745 0.470588 0.474510
v -0.479384 0.100746 -2.856942 0.286275 0.290196 0.301961
v -0.480375 0.100142 -2.880190 0.360784 0.368627 0.372549
v -0.498562 0.049543 -2.861292 0.478431 0.490196 0.525490
v -0.520198 0.059192 -2.879022 0.623529 0.631373 0.670588
v -0.497319 0.042120 -2.867239 0.611765 0.627451 0.674510
v -0.510624 0.039254 -2.879003 0.682353 0.701961 0.756863
v -0.501158 0.019976 -2.879744 0.568627 0.592157 0.631373
v -0.480509 0.024753 -2.865568 0.333333 0.349020 0.368627
v -0.479681 0.019249 -2.860160 0.474510 0.490196 0.517647
v -0.480126 0.036771 -2.870993 0.180392 0.188235 0.203922
v -0.479803 0.011129 -2.865372 0.513726 0.521569 0.537255
v -0.480365 -0.000935 -2.870415 0.576471 0.580392 0.588235
v -0.478994 0.162652 -2.863514 0.525490 0.537255 0.556863
v -0.459435 0.096219 -2.879366 0.396078 0.400000 0.403922
v -0.441749 0.078418 -2.865907 0.329412 0.329412 0.341176
v -0.440230 0.077181 -2.866780 0.313726 0.313726 0.325490
v -0.459408 0.065586 -2.860072 0.368627 0.372549 0.376471
v -0.442388 0.062166 -2.865517 0.372549 0.376471 0.380392
v -0.479936 0.051825 -2.858476 0.219608 0.223529 0.239216
v -0.460102 0.037727 -2.873120 0.227451 0.231373 0.235294
v -0.441360 0.042251 -2.875993 0.380392 0.384314 0.384314
v -0.388021 0.037210 -2.863122 0.282353 0.282353 0.290196
v -0.380678 0.037344 -2.861234 0.290196 0.290196 0.298039
v -0.476196 0.019189 -2.864527 0.352941 0.364706 0.384314
v -0.359386 0.028447 -2.859803 0.529412 0.529412 0.529412
v -0.402174 0.000250 -2.861456 0.517647 0.517647 0.513726
v -0.501161 0.005608 -2.883366 0.584314 0.592157 0.596078
v -0.499615 0.001462 -2.878005 0.588235 0.596078 0.603922
v -0.468168 0.178452 -2.879333 0.509804 0.521569 0.545098
v -0.320694 0.029914 -2.879722 0.443137 0.439216 0.439216
v -0.319990 0.032664 -2.898838 0.431373 0.423529 0.427451
v -0.320642 0.086547 -2.907970 0.309804 0.298039 0.317647
v -0.330207 0.091732 -2.930428 0.305882 0.301961 0.317647
v -0.322201 0.079586 -2.923887 0.282353 0.266667 0.290196
v -0.318461 0.046743 -2.920610 0.423529 0.419608 0.431373
v -0.328749 0.039483 -2.924703 0.364706 0.360784 0.376471
v -0.319320 0.040135 -2.912373 0.396078 0.388235 0.400000
v -0.320286 0.054559 -2.949651 0.360784 0.360784 0.372549
v -0.323299 0.059329 -2.973425 0.329412 0.325490 0.337255
v -0.318941 0.060125 -2.953321 0.282353 0.278431 0.294118
v -0.333791 0.041828 -2.980398 0.317647 0.309804 0.325490
v -0.320418 0.027733 -2.859730 0.482353 0.482353 0.482353
v -0.273969 0.060640 -2.867344 0.227451 0.211765 0.243137
v -0.270088 0.059014 -2.869973 0.235294 0.227451 0.250980
v -0.273785 0.071080 -2.873904 0.250980 0.231373 0.262745
v -0.277662 0.070350 -2.866385 0.274510 0.254902 0.286275
v -0.274361 0.060599 -2.866933 0.227451 0.211765 0.243137
v -0.273860 0.040416 -2.866897 0.349020 0.345098 0.360784
v -0.308472 0.038662 -2.883324 0.486275 0.482353 0.482353
v -0.316573 0.077240 -2.906195 0.309804 0.298039 0.317647
v -0.308601 0.058877 -2.900965 0.231373 0.219608 0.235294
v -0.306836 0.055667 -2.889050 0.219608 0.211765 0.227451
v -0.306062 0.043166 -2.898578 0.329412 0.313726 0.333333
v -0.313324 0.059561 -2.919493 0.250980 0.243137 0.258824
v -0.462557 -0.041752 -2.797770 0.627451 0.635294 0.627451
v -0.475407 -0.041389 -2.805438 0.462745 0.470588 0.454902
v -0.460883 -0.050108 -2.792406 0.635294 0.639216 0.635294
v -0.452735 -0.051536 -2.783694 0.627451 0.631373 0.627451
v -0.447800 -0.043404 -2.798492 0.631373 0.639216 0.631373
v -0.455319 -0.041979 -2.798866 0.631373 0.639216 0.631373
v -0.482049 -0.029673 -2.822699 0.639216 0.650980 0.639216
v -0.460350 -0.033138 -2.819464 0.639216 0.643137 0.639216
v -0.444926 -0.038498 -2.811560 0.666667 0.674510 0.658824
v -0.440424 -0.036459 -2.824008 0.674510 0.682353 0.666667
v -0.487905 -0.070871 -2.818287 0.329412 0.345098 0.321569
v -0.421521 -0.037403 -2.830214 0.674510 0.682353 0.658824
v -0.419194 -0.032141 -2.856742 0.674510 0.678431 0.658824
v -0.387505 -0.034748 -2.843460 0.674510 0.674510 0.654902
v -0.382226 -0.035573 -2.844370 0.674510 0.674510 0.654902
v -0.381121 0.003810 -2.836941 0.592157 0.596078 0.588235
v -0.393873 0.002104 -2.846306 0.509804 0.509804 0.505882
v -0.380339 -0.020782 -2.873842 0.670588 0.670588 0.654902
v -0.360408 -0.010672 -2.859371 0.454902 0.450980 0.454902
v -0.359667 0.001506 -2.840077 0.360784 0.360784 0.364706
v -0.347189 -0.020327 -2.858267 0.654902 0.650980 0.643137
v -0.339990 -0.019626 -2.850752 0.654902 0.650980 0.643137
v -0.339677 -0.003798 -2.842939 0.450980 0.450980 0.454902
v -0.460271 -0.028508 -2.860061 0.654902 0.662745 0.654902
v -0.480525 -0.026319 -2.838293 0.647059 0.658824 0.650980
v -0.479788 -0.017190 -2.860025 0.647059 0.658824 0.650980
v -0.440046 -0.029043 -2.876966 0.666667 0.674510 0.658824
v -0.381137 -0.027574 -2.862754 0.670588 0.670588 0.654902
v -0.373752 -0.033517 -2.861452 0.678431 0.678431 0.654902
v -0.337285 -0.029768 -2.844435 0.658824 0.658824 0.643137
v -0.341123 -0.032765 -2.844745 0.658824 0.658824 0.643137
v -0.400117 -0.016437 -2.879258 0.635294 0.635294 0.619608
v -0.361788 -0.024133 -2.882729 0.603922 0.600000 0.592157
v -0.501131 -0.006264 -2.821267 0.545098 0.549020 0.545098
v -0.495592 -0.004622 -2.839197 0.580392 0.588235 0.588235
v -0.500173 -0.001546 -2.838506 0.607843 0.615686 0.611765
v -0.500787 -0.004666 -2.846317 0.600000 0.607843 0.611765
v -0.505460 -0.019496 -2.806825 0.313726 0.325490 0.309804
v -0.494926 -0.021065 -2.821042 0.462745 0.474510 0.458824
v -0.511818 -0.020262 -2.803246 0.396078 0.403922 0.384314
v -0.498841 -0.030828 -2.821342 0.290196 0.298039 0.286275
v -0.501429 -0.040795 -2.826673 0.243137 0.250980 0.239216
v -0.494452 -0.060100 -2.821731 0.329412 0.345098 0.321569
v -0.506905 -0.071347 -2.799911 0.325490 0.337255 0.317647
v -0.498337 -0.070638 -2.820278 0.262745 0.278431 0.258824
v -0.502667 -0.059125 -2.822434 0.321569 0.337255 0.317647
v -0.515807 -0.009378 -2.822067 0.419608 0.427451 0.427451
v -0.488016 -0.019711 -2.838776 0.537255 0.549020 0.537255
v -0.514039 -0.039216 -2.834784 0.294118 0.301961 0.286275
v -0.500853 -0.057446 -2.827735 0.321569 0.337255 0.317647
v -0.513190 -0.043458 -2.833462 0.294118 0.301961 0.286275
v -0.498762 -0.007537 -2.859890 0.525490 0.533333 0.537255
v -0.476849 -0.016083 -2.867852 0.670588 0.678431 0.674510
v -0.318119 -0.033848 -2.833003 0.650980 0.650980 0.631373
v -0.320396 -0.029319 -2.839475 0.650980 0.650980 0.631373
v -0.321176 -0.005085 -2.845568 0.462745 0.458824 0.470588
v -0.322492 -0.017736 -2.848466 0.635294 0.635294 0.623529
v -0.266747 -0.033355 -2.760954 0.654902 0.654902 0.623529
v -0.278804 -0.023553 -2.795594 0.658824 0.654902 0.639216
v -0.276923 -0.032657 -2.779575 0.662745 0.666667 0.639216
v -0.267194 -0.024698 -2.781932 0.654902 0.654902 0.627451
v -0.260204 -0.013830 -2.801808 0.596078 0.596078 0.568627
v -0.279262 -0.016794 -2.803329 0.654902 0.654902 0.635294
v -0.242971 -0.013287 -2.804865 0.611765 0.607843 0.568627
v -0.241502 -0.006874 -2.813848 0.556863 0.556863 0.533333
v -0.288708 -0.031712 -2.801274 0.670588 0.670588 0.643137
v -0.293695 -0.018873 -2.817447 0.647059 0.643137 0.627451
v -0.296822 0.001469 -2.814175 0.635294 0.635294 0.615686
v -0.277369 -0.001481 -2.814777 0.635294 0.639216 0.619608
v -0.259576 -0.004742 -2.819339 0.470588 0.466667 0.447059
v -0.234660 -0.008943 -2.820838 0.564706 0.564706 0.541176
v -0.299951 -0.030474 -2.820723 0.658824 0.658824 0.639216
v -0.301903 -0.032935 -2.820227 0.658824 0.658824 0.639216
v -0.305079 0.001570 -2.820711 0.576471 0.572549 0.564706
v -0.306178 -0.019057 -2.833681 0.635294 0.631373 0.619608
v -0.259378 0.005558 -2.837990 0.364706 0.360784 0.364706
v -0.248616 0.006457 -2.840140 0.427451 0.423529 0.427451
v -0.471993 -0.017397 -2.878218 0.674510 0.678431 0.670588
v -0.459122 -0.024616 -2.888005 0.674510 0.678431 0.670588
v -0.419381 -0.026358 -2.880666 0.670588 0.674510 0.658824
v -0.398537 -0.019417 -2.883098 0.635294 0.635294 0.619608
v -0.361267 -0.030680 -2.877594 0.674510 0.678431 0.650980
v -0.467403 -0.019074 -2.898241 0.670588 0.678431 0.670588
v -0.459088 -0.012193 -2.899270 0.584314 0.588235 0.592157
v -0.439173 -0.006258 -2.899212 0.513726 0.521569 0.513726
v -0.421509 -0.016486 -2.898484 0.615686 0.619608 0.611765
v -0.442592 -0.018953 -2.919763 0.670588 0.674510 0.658824
v -0.420356 -0.018709 -2.901964 0.615686 0.619608 0.611765
v -0.458210 -0.019409 -2.923702 0.674510 0.678431 0.666667
v -0.457123 -0.019873 -2.919055 0.674510 0.678431 0.666667
v -0.501111 0.130123 -2.804978 0.219608 0.219608 0.235294
v -0.499529 0.120695 -2.799948 0.298039 0.298039 0.313726
v -0.497772 0.120720 -2.804086 0.282353 0.282353 0.298039
v -0.501349 0.132237 -2.807697 0.227451 0.227451 0.247059
v -0.513226 0.128782 -2.817051 0.415686 0.415686 0.439216
v -0.492038 0.131660 -2.818912 0.360784 0.364706 0.388235
v -0.490558 0.119693 -2.820276 0.372549 0.376471 0.400000
v -0.504712 0.103080 -2.822522 0.325490 0.329412 0.345098
v -0.500905 0.099802 -2.822620 0.188235 0.196078 0.207843
v -0.510619 0.119709 -2.818393 0.415686 0.415686 0.439216
v -0.497650 0.102454 -2.822613 0.211765 0.219608 0.231373
v -0.485486 0.119930 -2.839460 0.388235 0.396078 0.403922
v -0.487761 0.099796 -2.839530 0.262745 0.270588 0.282353
v -0.499934 0.081645 -2.837275 0.180392 0.184314 0.188235
v -0.508874 0.098486 -2.839035 0.403922 0.415686 0.435294
v -0.493937 0.079646 -2.840970 0.270588 0.274510 0.278431
v -0.491297 0.062341 -2.845675 0.270588 0.278431 0.294118
v -0.497150 0.061262 -2.845039 0.345098 0.352941 0.376471
v -0.480059 0.119055 -2.858245 0.454902 0.462745 0.474510
v -0.478966 0.080257 -2.855114 0.427451 0.435294 0.439216
v -0.511873 0.080034 -2.860597 0.521569 0.541176 0.564706
v -0.504503 0.059556 -2.858681 0.305882 0.313726 0.337255
v -0.357437 0.019624 -2.805799 0.611765 0.611765 0.607843
v -0.360286 0.020834 -2.818852 0.525490 0.525490 0.525490
v -0.372505 0.018654 -2.824676 0.647059 0.650980 0.643137
v -0.319130 0.017222 -2.816403 0.521569 0.517647 0.521569
v -0.359492 0.013897 -2.820807 0.458824 0.454902 0.458824
v -0.340012 0.016747 -2.820514 0.556863 0.560784 0.556863
v -0.378354 0.027248 -2.842521 0.482353 0.486275 0.482353
v -0.385862 0.017942 -2.839982 0.505882 0.509804 0.509804
v -0.360690 0.026833 -2.839862 0.490196 0.490196 0.494118
v -0.339970 0.024323 -2.839827 0.541176 0.545098 0.541176
v -0.319718 0.024124 -2.840158 0.509804 0.509804 0.509804
v -0.475906 0.080299 -2.860750 0.419608 0.427451 0.431373
v -0.461726 0.060551 -2.853874 0.368627 0.372549 0.376471
v -0.475815 0.181776 -2.840478 0.549020 0.556863 0.580392
v -0.532448 0.110422 -2.864921 0.588235 0.584314 0.619608
v -0.520894 0.098818 -2.859243 0.564706 0.568627 0.611765
v -0.522511 0.078906 -2.874372 0.733333 0.756863 0.800000
v -0.540141 0.079529 -2.884010 0.815686 0.839216 0.882353
v -0.589787 0.077877 -2.873590 0.439216 0.439216 0.450980
v -0.592641 0.060602 -2.866353 0.533333 0.533333 0.545098
v -0.585161 0.062863 -2.872349 0.490196 0.498039 0.517647
v -0.538155 0.077343 -2.883671 0.815686 0.839216 0.882353
v -0.589870 0.040059 -2.879249 0.572549 0.564706 0.560784
v -0.578449 0.059558 -2.881862 0.607843 0.619608 0.650980
v -0.591665 0.039974 -2.874843 0.572549 0.564706 0.560784
v -0.588020 0.028601 -2.870319 0.576471 0.580392 0.588235
v -0.578329 0.038296 -2.895659 0.576471 0.580392 0.588235
v -0.573872 0.027293 -2.884057 0.576471 0.580392 0.588235
v -0.518648 0.010584 -2.882459 0.639216 0.658824 0.701961
v -0.529792 0.003930 -2.877187 0.662745 0.666667 0.686275
v -0.521066 -0.003281 -2.861643 0.607843 0.615686 0.627451
v -0.553151 0.091536 -2.893022 0.694118 0.705882 0.749020
v -0.557778 0.078236 -2.892146 0.631373 0.643137 0.698039
v -0.575134 0.073190 -2.887569 0.474510 0.474510 0.498039
v -0.560123 0.070168 -2.894674 0.639216 0.643137 0.686275
v -0.567360 0.058104 -2.897700 0.619608 0.619608 0.647059
v -0.548705 0.057467 -2.897342 0.682353 0.682353 0.713726
v -0.582283 0.041157 -2.897318 0.568627 0.572549 0.588235
v -0.561492 0.037926 -2.895558 0.635294 0.647059 0.690196
v -0.561181 0.047663 -2.900280 0.631373 0.635294 0.674510
v -0.571238 0.042256 -2.898834 0.592157 0.600000 0.627451
v -0.540402 0.038895 -2.898243 0.811765 0.831373 0.901961
v -0.522701 0.038809 -2.891232 0.764706 0.788235 0.850980
v -0.537636 0.024077 -2.897779 0.764706 0.792157 0.850980
v -0.520921 0.020239 -2.889943 0.717647 0.741176 0.800000
v -0.534134 0.022288 -2.896532 0.764706 0.792157 0.850980
v -0.531140 0.006087 -2.881836 0.662745 0.666667 0.686275
v -0.560537 0.057237 -2.900220 0.666667 0.666667 0.694118
v -0.576499 0.043467 -2.903624 0.568627 0.572549 0.588235
v -0.531013 0.002796 -2.876147 0.662745 0.666667 0.686275
v -0.303516 0.016701 -2.813270 0.596078 0.592157 0.584314
v -0.283315 0.016869 -2.822872 0.470588 0.466667 0.462745
v -0.299483 0.026523 -2.840140 0.549020 0.545098 0.541176
v -0.278341 0.031356 -2.859690 0.317647 0.305882 0.321569
v -0.272224 0.017725 -2.841006 0.368627 0.356863 0.368627
v -0.300320 0.032487 -2.855976 0.529412 0.525490 0.529412
v -0.261374 0.019423 -2.857949 0.258824 0.239216 0.270588
v -0.267806 0.038699 -2.864607 0.454902 0.447059 0.458824
v -0.265812 0.029134 -2.862333 0.364706 0.349020 0.372549
v -0.266003 0.040640 -2.862762 0.454902 0.447059 0.458824
v -0.262001 0.023149 -2.862097 0.258824 0.239216 0.270588
v -0.511468 -0.073350 -2.779974 0.360784 0.376471 0.360784
v -0.511554 -0.061876 -2.801833 0.443137 0.454902 0.439216
v -0.513880 -0.063049 -2.794126 0.443137 0.454902 0.439216
v -0.512581 -0.036951 -2.821485 0.298039 0.305882 0.294118
v -0.512680 -0.043491 -2.822199 0.325490 0.333333 0.321569
v -0.530660 -0.002247 -2.840061 0.552941 0.556863 0.560784
v -0.530884 -0.001657 -2.829595 0.568627 0.572549 0.576471
v -0.519421 -0.006496 -2.839216 0.450980 0.458824 0.458824
v -0.511647 -0.041558 -2.832944 0.294118 0.301961 0.286275
v -0.531828 -0.002303 -2.859806 0.654902 0.666667 0.682353
v -0.417575 0.089236 -3.059856 0.309804 0.301961 0.313726
v -0.423297 0.094946 -3.059152 0.231373 0.235294 0.247059
v -0.402377 0.080049 -3.075223 0.356863 0.349020 0.364706
v -0.402074 0.081853 -3.061223 0.305882 0.301961 0.313726
v -0.407802 0.093122 -3.060944 0.266667 0.258824 0.274510
v -0.395570 0.076916 -3.059997 0.345098 0.337255 0.349020
v -0.398223 0.065434 -3.060988 0.239216 0.235294 0.243137
v -0.380409 0.062981 -3.044083 0.200000 0.196078 0.207843
v -0.393396 0.064857 -3.057537 0.219608 0.211765 0.223529
v -0.415887 0.096392 -3.077026 0.298039 0.294118 0.298039
v -0.401258 0.081514 -3.078571 0.337255 0.333333 0.349020
v -0.396495 0.077790 -3.080469 0.364706 0.356863 0.372549
v -0.398129 0.069858 -3.072431 0.286275 0.282353 0.294118
v -0.415417 0.097103 -3.079523 0.298039 0.294118 0.298039
v -0.396923 0.079500 -3.085362 0.364706 0.356863 0.372549
v -0.383117 0.078970 -3.102466 0.337255 0.329412 0.349020
v -0.384091 0.078936 -3.099407 0.337255 0.329412 0.349020
v -2.119591 -0.452289 -3.307390 0.494118 0.521569 0.525490
v -2.142934 -0.453171 -3.327566 0.490196 0.513726 0.513726
v -2.128643 -0.448121 -3.312989 0.478431 0.501961 0.505882
v -2.154369 -0.448326 -3.335255 0.478431 0.501961 0.505882
v -2.134313 -0.450909 -3.318781 0.494118 0.521569 0.525490
v -0.445884 0.252706 -2.784742 0.286275 0.282353 0.270588
v -0.438228 0.253019 -2.783159 0.286275 0.282353 0.270588
v -0.435373 0.255414 -2.777827 0.286275 0.282353 0.270588
v -0.418446 0.250205 -2.768923 0.215686 0.211765 0.203922
v -0.421701 0.249300 -2.779187 0.215686 0.211765 0.203922
v -0.412967 0.244681 -2.782162 0.215686 0.215686 0.211765
v -0.470603 0.242097 -2.790958 0.435294 0.443137 0.462745
v -0.460305 0.240042 -2.790078 0.203922 0.203922 0.211765
v -0.441806 0.243482 -2.794624 0.215686 0.215686 0.211765
v -0.449060 0.237878 -2.796248 0.192157 0.192157 0.196078
v -0.417858 0.244360 -2.792598 0.196078 0.192157 0.192157
v -0.400923 0.245038 -2.791403 0.184314 0.180392 0.180392
v -0.463298 0.222261 -2.790198 0.235294 0.243137 0.250980
v -0.477725 0.216973 -2.786919 0.239216 0.239216 0.254902
v -0.449279 0.222428 -2.802387 0.313726 0.317647 0.321569
v -0.475638 0.200255 -2.801847 0.274510 0.278431 0.290196
v -0.459312 0.214479 -2.800693 0.317647 0.321569 0.333333
v -0.482475 0.202201 -2.792155 0.219608 0.223529 0.227451
v -0.482428 0.191735 -2.799308 0.396078 0.400000 0.415686
v -0.444879 0.234342 -2.802580 0.192157 0.192157 0.196078
v -0.442195 0.219831 -2.810127 0.333333 0.337255 0.337255
v -0.476088 0.187926 -2.823893 0.572549 0.580392 0.600000
v -0.476068 0.187737 -2.824379 0.572549 0.580392 0.600000
v -0.476136 0.187471 -2.824606 0.572549 0.580392 0.600000
v -0.465437 0.198489 -2.839765 0.419608 0.423529 0.439216
v -0.457987 0.200179 -2.851977 0.403922 0.407843 0.427451
v -0.448760 0.206989 -2.840656 0.415686 0.419608 0.427451
v -0.448144 0.198575 -2.862983 0.427451 0.431373 0.447059
v -0.473481 0.179032 -2.859950 0.521569 0.533333 0.556863
v -0.449692 0.187535 -2.882896 0.513726 0.517647 0.537255
v -0.491227 0.199175 -2.790371 0.364706 0.368627 0.364706
v -0.458131 0.188270 -2.877843 0.474510 0.482353 0.501961
v -0.462216 0.177795 -2.890521 0.537255 0.549020 0.572549
vn -0.690583 -0.018738 0.723010
vn -0.211042 0.525505 0.824200
vn -0.681261 0.254564 0.686353
vn 0.953430 -0.244121 0.177133
vn 0.834094 0.024367 0.551085
vn 0.861745 -0.406046 0.304175
vn 0.284328 0.060407 0.956822
vn -0.230167 0.088595 0.969110
vn -0.479967 -0.317027 0.818001
vn 0.156225 0.208208 0.965527
vn -0.436700 0.036702 0.898858
vn -0.076164 0.184746 0.979831
vn 0.666263 0.566610 0.484817
vn 0.319862 0.691552 0.647645
vn 0.218325 -0.442374 0.869850
vn -0.347462 0.627152 0.697102
vn 0.265564 0.832274 0.486616
vn 0.693971 0.573054 0.435905
vn 0.716398 0.661570 0.221584
vn 0.686091 0.656139 0.314262
vn 0.101872 0.653739 0.749832
vn 0.581416 0.141210 0.801259
vn 0.094282 0.641970 0.760911
vn 0.475856 0.819447 0.319480
vn 0.433456 -0.448584 0.781593
vn -0.065360 -0.165972 0.983962
vn -0.528533 0.370022 0.764027
vn -0.025728 0.808889 0.587399
vn 0.519208 0.831150 0.199029
vn 0.441479 0.870026 0.219434
vn 0.458248 -0.137851 0.878069
vn 0.428705 -0.230648 0.873506
vn -0.073368 -0.194272 0.978200
vn -0.662460 0.106067 0.741550
vn -0.626294 -0.195742 0.754613
vn -0.859527 0.206550 0.467494
vn 0.397753 -0.227947 0.888725
vn -0.429321 -0.107516 0.896730
vn -0.825210 0.075766 0.559721
vn 0.694606 0.701579 0.159087
vn 0.623876 0.777310 0.081046
vn 0.377954 0.924998 0.039116
vn 0.333591 0.928374 0.163822
vn 0.021015 0.992360 0.121577
vn -0.117679 0.982004 0.147713
vn 0.707230 0.702308 0.081172
vn 0.696115 0.714753 0.067466
vn 0.546973 0.837122 -0.006885
vn 0.755327 0.654324 0.036616
vn 0.528664 0.848591 0.020177
vn 0.197611 0.979070 0.048700
vn -0.264411 0.962315 0.063531
vn -0.603783 0.793615 0.074977
vn -0.789554 0.064572 0.610275
vn -0.799468 -0.146767 0.582503
vn -0.580678 -0.383378 0.718216
vn -0.675969 -0.515899 0.526226
vn -0.388946 -0.806608 0.445088
vn -0.727218 -0.388655 0.565775
vn -0.582695 -0.621046 0.524183
vn 0.685037 0.728329 0.016141
vn -0.491583 -0.804028 0.334491
vn -0.779044 -0.277035 0.562444
vn 0.767936 0.639498 0.036284
vn -0.623854 -0.675683 0.392757
vn -0.673671 -0.657179 0.338058
vn -0.540751 -0.815600 0.205876
vn 0.652806 0.757344 0.016585
vn -0.534170 -0.791212 0.297734
vn -0.517015 -0.810839 0.274292
vn 0.511860 0.849265 0.129414
vn 0.309340 0.927627 0.209326
vn -0.161337 0.945783 0.281896
vn -0.749682 0.602856 0.273022
vn 0.730027 0.683283 -0.013615
vn 0.710524 0.703433 -0.018363
vn -0.480813 -0.843598 0.239085
vn -0.479173 -0.857009 0.189547
vn -0.530928 -0.831401 0.163971
vn -0.456367 -0.861350 0.223170
vn -0.924586 -0.221229 0.310159
vn -0.784048 0.236619 0.573830
vn 0.313105 0.899611 0.304410
vn 0.054514 0.885751 0.460949
vn -0.408208 0.727516 0.551441
vn 0.762177 0.647341 -0.005952
vn -0.567348 -0.711379 0.414797
vn -0.674075 -0.721590 0.157897
vn 0.598770 0.798366 0.063927
vn -0.387624 0.219156 0.895387
vn -0.708145 -0.211308 0.673706
vn 0.005998 0.956164 0.292771
vn 0.510923 -0.215534 0.832167
vn 0.574789 -0.644164 0.504649
vn 0.963687 -0.246510 0.102664
vn 0.987038 0.051854 0.151877
vn 0.970686 -0.042774 0.236515
vn 0.981817 0.049269 0.183324
vn 0.960163 0.060504 0.272812
vn 0.951050 0.163717 0.262108
vn -0.375712 -0.659886 0.650685
vn -0.603640 -0.368016 0.707236
vn -0.394026 -0.482783 0.782090
vn -0.610323 -0.242328 0.754177
vn -0.529722 -0.156560 0.833596
vn -0.065861 0.560254 0.825699
vn 0.073886 0.134842 0.988109
vn 0.057273 -0.205042 0.977076
vn 0.131030 -0.436424 0.890149
vn 0.002652 0.164816 0.986321
vn 0.926122 -0.349549 0.141824
vn -0.173147 0.008549 0.984859
vn 0.093090 0.451702 0.887299
vn 0.652065 0.331962 0.681625
vn 0.484597 0.710424 0.510356
vn 0.298255 0.072066 0.951762
vn 0.092407 -0.684523 0.723111
vn 0.210471 -0.430673 0.877624
vn 0.418718 -0.391482 0.819400
vn -0.708979 0.461563 0.533206
vn 0.106711 0.891122 0.441039
vn 0.592907 0.150452 0.791092
vn 0.215618 0.961656 0.169487
vn -0.915706 0.010695 0.401706
vn -0.244117 0.360640 0.900192
vn 0.138984 0.777655 0.613136
vn 0.772593 -0.572375 0.274749
vn -0.409961 0.903984 0.121432
vn -0.403144 0.877260 0.260556
vn -0.885629 -0.387378 0.256125
vn -0.860420 -0.391566 0.326118
vn -0.863335 -0.428852 0.265966
vn -0.831913 0.498737 0.243273
vn -0.564037 0.778269 0.275971
vn -0.692031 0.596745 0.406188
vn -0.832584 0.529640 0.162130
vn -0.910211 -0.297922 0.287679
vn -0.982540 0.041323 0.181406
vn -0.787255 0.602952 0.129142
vn -0.210705 0.959226 0.188384
vn 0.706517 0.338396 0.621548
vn 0.197090 0.297531 0.934147
vn 0.743354 0.346445 0.572189
vn 0.779116 0.239026 0.579521
vn 0.648268 0.227258 0.726706
vn 0.053616 0.296698 0.953465
vn -0.787375 0.603804 0.124346
vn -0.915535 -0.357333 0.184687
vn -0.978611 -0.181041 0.097698
vn -0.986018 -0.122469 0.113006
vn -0.842384 0.481907 0.241155
vn -0.961920 -0.006614 0.273252
vn -0.116326 0.805694 0.580797
vn -0.556005 0.352296 0.752826
vn -0.617681 0.232778 0.751189
vn -0.316190 0.661261 0.680263
vn 0.131560 0.854252 0.502937
vn 0.027449 0.939634 0.341079
vn -0.066042 0.952606 0.296952
vn 0.165751 0.953814 0.250530
vn 0.036777 0.975444 0.217158
vn 0.074790 0.982756 0.169106
vn -0.451193 0.065752 0.890001
vn 0.119558 0.913624 0.388583
vn -0.030042 0.969283 0.244107
vn 0.096688 0.900213 0.424579
vn 0.336601 0.793445 0.507094
vn -0.160136 -0.730082 0.664331
vn -0.726318 -0.292704 0.621922
vn 0.082169 -0.251016 0.964489
vn -0.245454 -0.770809 0.587883
vn -0.089586 -0.794349 0.600819
vn -0.732614 -0.112811 0.671231
vn -0.364946 -0.069171 0.928456
vn -0.125568 -0.655017 0.745108
vn 0.317943 0.927766 0.195352
vn 0.272798 0.849041 0.452449
vn 0.571965 0.735185 0.363812
vn 0.022000 0.980592 0.194823
vn 0.166394 0.885858 0.433092
vn 0.507036 0.737431 0.446217
vn -0.445716 0.380813 0.810135
vn -0.576593 0.426551 0.696846
vn -0.579374 -0.600869 0.550711
vn -0.533234 -0.170878 0.828530
vn 0.434916 0.766460 0.472639
vn 0.672376 0.734887 0.088611
vn 0.082288 0.996609 0.000265
vn 0.080020 0.953674 -0.290004
vn 0.532336 0.287062 0.796376
vn 0.904960 0.013100 0.425295
vn 0.448654 -0.212434 0.868090
vn 0.456629 -0.642479 0.615394
vn -0.201822 0.161511 0.966013
vn -0.443203 0.156623 0.882633
vn 0.830574 0.442062 0.338715
vn 0.310737 0.436820 0.844174
vn 0.774071 0.431963 0.462841
vn -0.014583 0.938715 0.344387
vn 0.778347 0.355022 0.517818
vn -0.388685 -0.301228 0.870738
vn 0.212653 0.275236 0.937563
vn -0.249775 0.403516 0.880220
vn 0.216779 0.974116 0.064065
vn 0.747446 0.350964 0.564047
vn -0.494045 0.592537 0.636254
vn -0.378026 0.516788 0.768132
vn -0.325269 -0.515096 0.793017
vn -0.425015 0.194973 0.883939
vn -0.541750 0.740317 0.398043
vn -0.530605 0.690718 0.491291
vn -0.708979 0.574148 0.409516
vn -0.132083 0.877491 0.461047
vn -0.148355 0.861867 0.484950
vn -0.233145 0.602143 0.763588
vn 0.449451 0.690618 0.566604
vn 0.195250 0.852770 0.484418
vn -0.731712 0.460649 0.502394
vn -0.816736 0.276852 0.506256
vn -0.421789 -0.176086 0.889431
vn 0.359540 0.543090 0.758804
vn 0.067156 0.834558 0.546812
vn 0.608831 0.689902 0.391611
vn -0.788264 0.507281 0.348289
vn -0.731968 0.533350 0.423982
vn -0.601909 -0.506430 0.617441
vn -0.696530 0.139534 0.703830
vn 0.231390 0.826583 0.513050
vn 0.096376 0.851825 0.514885
vn 0.908492 0.043605 0.415621
vn 0.374864 0.909398 0.180199
vn -0.173779 0.942140 0.286660
vn -0.524018 0.322356 0.788347
vn 0.049469 0.694537 0.717755
vn 0.923887 0.209109 0.320476
vn 0.360254 -0.858476 0.365015
vn 0.043147 -0.757404 0.651520
vn -0.431978 -0.680035 0.592408
vn -0.301084 0.203810 0.931563
vn -0.510886 0.464523 0.723335
vn 0.697063 0.271375 0.663670
vn 0.121096 0.985139 0.121809
vn 0.207041 0.644813 0.735765
vn -0.138175 -0.435312 0.889613
vn 0.910075 0.071051 0.408308
vn 0.487150 0.633712 0.600911
vn -0.838058 -0.126707 0.530664
vn 0.910344 0.183243 0.371073
vn 0.929021 -0.164082 0.331658
vn -0.715453 -0.490895 0.497142
vn 0.051452 -0.662299 0.747471
vn -0.851230 -0.351010 0.390128
vn 0.771372 -0.402088 0.493264
vn 0.953184 -0.023170 0.301501
vn 0.888150 -0.146378 0.435618
vn -0.439409 -0.485229 0.755958
vn -0.847587 -0.386242 0.363886
vn 0.638378 -0.283900 0.715454
vn 0.355715 -0.299700 0.885238
vn -0.399531 -0.571658 0.716647
vn 0.977736 0.076003 0.195591
vn 0.666315 0.285077 0.689025
vn -0.796763 -0.314361 0.516087
vn -0.760351 -0.360500 0.540284
vn -0.315478 -0.552898 0.771218
vn -0.052225 0.966570 0.251028
vn -0.617907 -0.017712 0.786052
vn -0.327354 0.162151 0.930885
vn -0.154927 -0.877135 0.454568
vn 0.013170 -0.857298 0.514652
vn -0.210721 0.876047 0.433750
vn -0.728458 0.431766 0.531909
vn 0.075597 0.984224 0.159960
vn 0.033755 0.986881 0.157884
vn -0.027377 0.975030 0.220379
vn 0.837496 0.440939 0.322759
vn 0.397345 -0.082295 0.913972
vn 0.906550 -0.393133 0.153666
vn -0.691768 -0.392139 0.606370
vn -0.708698 -0.423990 0.563897
vn -0.599426 -0.326073 0.731002
vn -0.485908 -0.232338 0.842563
vn 0.638782 0.256735 0.725290
vn 0.627691 -0.012318 0.778365
vn 0.760169 -0.059395 0.647004
vn -0.403387 -0.290616 0.867653
vn 0.877660 0.127289 0.462073
vn 0.742116 -0.284469 0.606912
vn 0.857768 -0.051935 0.511407
vn 0.715078 0.544521 0.438361
vn 0.284198 0.767194 0.575017
vn 0.307030 0.662455 0.683291
vn 0.033830 0.734043 0.678260
vn -0.294207 0.764319 0.573811
vn 0.041375 0.921352 0.386520
vn -0.422349 0.205074 0.882930
vn -0.238051 -0.149490 0.959679
vn 0.618868 0.050083 0.783897
vn 0.136359 -0.327331 0.935019
vn 0.498629 -0.452930 0.739069
vn -0.373280 -0.306165 0.875742
vn 0.743591 -0.098210 0.661383
vn 0.083276 0.473757 0.876710
vn 0.010711 0.220366 0.975359
vn -0.161442 0.508902 0.845550
vn -0.249181 -0.055516 0.966864
vn -0.541684 -0.199603 0.816540
vn 0.056558 0.318399 0.946268
vn -0.322353 0.327905 0.888013
vn -0.272978 0.324812 0.905528
vn -0.283734 0.723673 0.629120
vn 0.036600 -0.218854 0.975071
vn 0.048866 0.536978 0.842180
vn -0.170585 0.876710 0.449756
vn 0.092110 0.619825 0.779315
vn 0.489320 0.686482 0.537874
vn -0.053735 0.948260 0.312915
vn 0.283107 0.804915 0.521500
vn 0.577406 0.676353 0.457328
vn -0.073159 0.876533 0.475749
vn 0.332264 0.734566 0.591619
vn -0.539944 0.122383 0.832756
vn -0.712459 -0.134391 0.688725
vn -0.740227 0.050038 0.670493
vn -0.235975 0.506253 0.829472
vn 0.796242 0.536956 0.278707
vn 0.804439 0.489210 0.336973
vn 0.800185 0.508014 0.318788
vn 0.371606 -0.843045 0.388824
vn 0.840882 0.488750 0.232468
vn 0.423964 0.905011 -0.034776
vn 0.449271 0.893371 -0.006577
vn 0.102465 0.994626 -0.014856
vn -0.514364 0.163612 0.841820
vn 0.297633 0.949787 0.096534
vn 0.696963 0.713227 0.074489
vn 0.711031 0.672478 0.205449
vn 0.772970 0.583990 0.247937
vn -0.728818 -0.663192 0.170294
vn -0.835779 -0.542952 0.081707
vn -0.808099 -0.489984 0.326944
vn 0.387253 0.881977 0.268612
vn -0.535286 0.332863 0.776319
vn -0.617758 0.636388 0.461937
vn 0.071652 -0.179243 0.981192
vn -0.589391 -0.806053 -0.053823
vn -0.986418 -0.086613 -0.139563
vn 0.227384 0.864966 0.447359
vn 0.157816 -0.556218 0.815914
vn 0.788168 0.206467 0.579795
vn 0.275642 -0.346586 0.896604
vn -0.788427 -0.427606 -0.442194
vn -0.566363 -0.428525 0.703988
vn 0.212049 -0.916814 -0.338359
vn -0.088001 0.946931 0.309155
vn -0.638792 -0.270543 0.720244
vn -0.608214 -0.343697 0.715505
vn 0.000995 -0.676645 0.736308
vn -0.254088 -0.818684 0.514971
vn -0.285767 -0.807629 0.515822
vn -0.396600 -0.860144 0.320718
vn -0.278517 -0.939470 0.199559
vn -0.520778 -0.808801 -0.273186
vn -0.011089 -0.047864 0.998792
vn 0.256225 -0.348261 0.901700
vn 0.097515 -0.747747 0.656783
vn 0.467893 -0.485638 0.738398
vn 0.008971 -0.937495 0.347882
vn -0.314609 -0.925158 -0.212377
vn 0.424049 -0.342289 0.838464
vn 0.290254 -0.245059 0.925040
vn 0.603090 -0.348284 0.717621
vn 0.694198 -0.579269 0.427243
vn 0.521515 -0.738407 0.427524
vn 0.503100 -0.468683 0.726104
vn 0.772222 -0.281573 0.569553
vn 0.616993 -0.405110 0.674689
vn 0.575990 -0.577526 0.578532
vn 0.580619 0.766597 -0.274245
vn 0.888606 -0.412860 0.199816
vn 0.920413 -0.357697 0.157774
vn 0.743581 -0.624973 0.237687
vn 0.482981 -0.810761 0.330750
vn 0.337436 -0.893954 0.294930
vn 0.296342 -0.870959 0.391934
vn 0.830541 -0.505851 0.233058
vn 0.263370 -0.841656 0.471436
vn 0.315149 -0.405494 0.858054
vn 0.436678 -0.791140 0.428263
vn 0.544006 -0.703056 0.458006
f 1 2 3
f 4 5 6
f 7 8 9
f 3 7 9
f 1 3 9
f 3 5 7
f 8 10 11
f 7 10 8
f 10 12 11
f 10 13 12
f 12 14 15
f 14 16 17
f 12 16 14
f 14 17 18
f 14 18 19
f 18 20 19
f 12 13 21
f 12 21 16
f 18 22 20
f 22 23 24
f 20 22 24
f 22 25 26
f 22 26 23
f 23 27 28
f 23 26 27
f 23 29 24
f 23 28 29
f 28 30 29
f 25 31 32
f 25 33 26
f 25 32 33
f 33 34 35
f 26 33 35
f 26 35 27
f 34 36 35
f 31 37 32
f 33 37 38
f 32 37 33
f 33 38 34
f 34 38 39
f 34 39 36
f 19 20 40
f 20 41 40
f 20 24 41
f 24 29 41
f 29 30 42
f 30 43 42
f 43 44 45
f 42 43 45
f 19 46 47
f 19 40 46
f 40 41 46
f 29 48 41
f 29 42 48
f 46 49 47
f 42 50 48
f 42 51 50
f 42 45 52
f 42 52 51
f 45 53 52
f 54 55 56
f 55 57 56
f 56 57 58
f 56 60 59
f 56 58 60
f 46 61 49
f 41 61 46
f 58 62 60
f 41 50 61
f 41 48 50
f 54 63 55
f 47 49 64
f 63 65 66
f 57 66 67
f 57 63 66
f 55 63 57
f 57 67 58
f 49 61 68
f 58 67 69
f 58 70 62
f 58 69 70
f 61 71 68
f 50 71 61
f 50 72 71
f 50 51 72
f 51 52 73
f 51 73 72
f 52 74 73
f 47 75 76
f 47 64 75
f 65 77 66
f 65 78 77
f 66 79 67
f 66 77 79
f 49 68 64
f 64 68 75
f 67 79 80
f 67 80 69
f 69 81 70
f 69 82 81
f 68 71 83
f 71 72 84
f 71 84 83
f 82 84 85
f 74 82 85
f 75 86 76
f 77 78 87
f 78 88 87
f 77 87 79
f 68 86 75
f 68 89 86
f 79 87 90
f 79 90 80
f 69 80 91
f 80 90 91
f 68 83 92
f 68 92 89
f 83 84 90
f 83 90 92
f 82 91 84
f 84 91 90
f 37 93 94
f 4 95 96
f 4 96 97
f 96 98 97
f 98 99 100
f 13 100 99
f 101 102 103
f 103 104 105
f 105 107 106
f 105 106 108
f 103 105 108
f 105 110 109
f 105 109 107
f 4 111 95
f 1 9 2
f 8 11 112
f 11 12 112
f 16 113 17
f 12 15 112
f 17 113 114
f 17 114 18
f 13 115 21
f 16 21 116
f 16 116 113
f 18 114 22
f 22 114 116
f 108 118 117
f 116 118 119
f 22 119 25
f 22 116 119
f 27 120 121
f 27 121 28
f 28 121 30
f 31 108 122
f 31 118 108
f 25 119 31
f 31 119 118
f 27 35 120
f 35 36 120
f 30 121 43
f 43 121 123
f 43 123 44
f 31 122 109
f 31 109 110
f 31 110 93
f 31 93 37
f 36 39 124
f 36 124 120
f 4 97 5
f 5 98 7
f 5 97 98
f 7 100 10
f 7 98 100
f 10 100 13
f 105 125 110
f 110 125 126
f 4 127 111
f 4 6 127
f 73 74 85
f 72 73 84
f 73 85 84
f 69 91 82
f 44 128 129
f 130 131 132
f 133 134 135
f 129 135 134
f 45 129 134
f 44 129 45
f 133 136 134
f 59 132 131
f 59 60 132
f 60 137 132
f 132 137 138
f 53 134 136
f 45 134 53
f 60 62 137
f 136 137 139
f 53 136 139
f 52 53 139
f 70 81 137
f 62 70 137
f 81 139 137
f 74 139 81
f 52 139 74
f 74 81 82
f 44 140 128
f 141 142 143
f 141 143 144
f 141 145 142
f 142 145 146
f 128 140 147
f 148 149 150
f 147 149 151
f 147 150 149
f 128 147 151
f 128 151 129
f 130 132 148
f 132 152 148
f 148 152 149
f 135 151 152
f 149 152 151
f 133 135 152
f 129 151 135
f 132 138 152
f 133 152 138
f 133 138 136
f 136 138 137
f 153 154 155
f 153 156 157
f 153 155 156
f 153 157 158
f 153 159 154
f 153 160 159
f 158 161 162
f 153 158 162
f 153 162 160
f 154 163 155
f 157 161 158
f 159 160 162
f 161 164 165
f 161 165 162
f 164 166 165
f 164 167 166
f 168 169 170
f 168 171 172
f 168 170 171
f 171 173 174
f 171 174 175
f 171 175 172
f 159 176 177
f 176 178 177
f 159 162 179
f 159 179 176
f 162 165 179
f 165 166 180
f 166 167 180
f 167 181 180
f 173 182 174
f 173 183 182
f 124 184 169
f 169 184 170
f 171 185 173
f 170 180 181
f 173 185 183
f 186 187 188
f 187 189 188
f 186 190 191
f 190 192 193
f 190 193 191
f 154 159 194
f 154 194 163
f 163 194 195
f 196 197 198
f 186 188 199
f 186 191 187
f 187 191 200
f 193 201 194
f 191 194 200
f 191 193 194
f 177 200 194
f 159 177 194
f 194 198 202
f 194 203 198
f 194 202 195
f 197 202 198
f 163 195 197
f 195 202 197
f 187 204 189
f 178 204 187
f 178 187 200
f 177 178 200
f 110 178 205
f 126 204 178
f 183 206 207
f 182 183 207
f 174 208 175
f 174 209 208
f 174 182 207
f 174 207 209
f 210 211 212
f 210 213 211
f 211 213 214
f 211 214 215
f 213 216 217
f 213 217 214
f 211 218 212
f 211 215 219
f 215 220 219
f 215 221 220
f 215 222 221
f 214 222 215
f 214 217 222
f 216 223 217
f 219 224 225
f 218 219 225
f 211 219 218
f 220 226 227
f 208 227 226
f 219 220 227
f 221 222 228
f 217 228 222
f 206 227 207
f 206 225 227
f 224 227 225
f 219 227 224
f 208 209 227
f 207 227 209
f 217 223 229
f 93 230 94
f 93 205 230
f 93 110 205
f 39 184 124
f 170 185 171
f 205 231 230
f 178 231 205
f 176 231 178
f 176 179 231
f 165 232 179
f 165 233 232
f 170 233 180
f 165 180 233
f 170 181 234
f 94 235 236
f 94 230 235
f 37 94 237
f 94 236 237
f 37 237 38
f 38 237 238
f 184 238 233
f 38 238 184
f 38 184 39
f 170 184 233
f 230 231 235
f 179 239 231
f 179 232 240
f 179 240 239
f 232 233 240
f 170 234 185
f 183 185 234
f 235 241 236
f 236 239 237
f 236 241 239
f 238 239 240
f 237 239 238
f 233 238 240
f 235 242 241
f 231 242 235
f 231 239 242
f 239 241 242
f 110 126 178
f 243 244 245
f 243 246 247
f 243 247 244
f 243 245 246
f 245 248 246
f 245 249 248
f 244 250 251
f 244 252 250
f 244 251 253
f 244 253 245
f 245 253 249
f 248 249 254
f 249 253 254
f 253 255 254
f 250 256 251
f 250 257 256
f 251 256 258
f 251 258 253
f 253 258 255
f 256 259 258
f 256 260 259
f 96 254 261
f 96 248 254
f 99 261 255
f 254 255 261
f 99 258 262
f 99 255 258
f 256 263 260
f 260 263 264
f 258 259 262
f 101 260 264
f 117 259 260
f 101 117 260
f 96 261 98
f 98 261 99
f 101 108 117
f 101 103 108
f 265 266 267
f 265 268 266
f 265 267 269
f 265 269 270
f 265 270 268
f 267 271 272
f 266 271 267
f 266 273 271
f 266 274 273
f 266 275 274
f 169 267 272
f 168 267 169
f 168 172 267
f 172 269 267
f 172 175 270
f 172 270 269
f 99 262 276
f 115 276 262
f 115 262 277
f 259 277 262
f 115 277 116
f 113 116 114
f 117 277 259
f 106 107 122
f 120 271 121
f 120 272 271
f 121 271 123
f 123 271 273
f 44 273 274
f 44 123 273
f 107 109 122
f 120 169 272
f 120 124 169
f 13 99 276
f 13 276 115
f 21 115 116
f 117 118 277
f 116 277 118
f 106 122 108
f 95 111 278
f 244 247 252
f 247 257 252
f 250 252 257
f 247 279 280
f 247 280 257
f 256 257 280
f 256 280 263
f 263 280 281
f 263 281 264
f 101 264 102
f 280 282 281
f 279 282 280
f 283 284 285
f 281 282 286
f 102 264 281
f 285 287 288
f 285 289 287
f 284 289 285
f 102 104 103
f 287 290 291
f 287 289 290
f 290 292 291
f 293 294 295
f 126 293 295
f 282 296 297
f 283 285 298
f 297 298 299
f 288 299 298
f 288 300 299
f 285 288 298
f 286 299 301
f 286 297 299
f 282 297 286
f 281 286 301
f 102 281 301
f 287 302 288
f 288 302 300
f 303 304 305
f 303 306 304
f 102 306 307
f 102 301 306
f 102 307 104
f 287 291 302
f 291 292 303
f 291 303 305
f 303 308 306
f 292 308 303
f 306 309 307
f 306 310 309
f 104 309 105
f 104 307 309
f 308 311 310
f 309 310 311
f 294 309 311
f 293 309 294
f 126 309 293
f 125 309 126
f 105 309 125
f 299 300 312
f 299 312 301
f 300 302 312
f 302 313 312
f 304 312 305
f 305 312 313
f 304 306 312
f 301 312 306
f 291 313 302
f 291 305 313
f 306 308 310
f 294 314 295
f 294 311 314
f 266 268 275
f 175 208 270
f 208 268 270
f 140 274 275
f 44 274 140
f 220 268 226
f 220 315 268
f 221 316 315
f 220 221 315
f 268 315 317
f 268 317 275
f 315 316 318
f 315 318 317
f 316 319 318
f 208 226 268
f 221 319 316
f 221 228 319
f 217 229 228
f 141 144 145
f 140 317 320
f 140 275 317
f 317 318 320
f 318 319 321
f 322 323 324
f 228 321 319
f 228 229 321
f 229 325 321
f 142 322 324
f 142 146 322
f 140 320 147
f 146 320 318
f 146 318 321
f 146 321 325
f 146 323 322
f 146 325 323
f 326 327 328
f 196 327 326
f 186 199 190
f 190 199 192
f 192 329 193
f 327 330 328
f 198 330 327
f 196 198 327
f 331 332 333
f 199 333 332
f 188 333 199
f 194 201 334
f 193 329 201
f 198 203 330
f 194 334 203
f 331 335 332
f 331 333 335
f 295 335 333
f 188 189 333
f 189 204 333
f 204 295 333
f 201 203 334
f 295 314 335
f 126 295 204
f 76 336 337
f 76 86 336
f 86 338 336
f 87 88 339
f 88 340 339
f 87 339 341
f 86 89 338
f 89 342 338
f 87 341 343
f 341 344 343
f 87 343 90
f 92 343 344
f 92 344 342
f 89 92 342
f 90 343 92
f 337 338 345
f 336 338 337
f 339 340 346
f 340 345 346
f 339 346 341
f 341 346 347
f 338 342 348
f 344 347 348
f 341 347 344
f 338 349 345
f 338 350 349
f 345 349 346
f 346 349 350
f 346 350 351
f 346 352 347
f 346 351 352
f 348 351 350
f 347 352 351
f 347 351 348
f 342 344 348
f 338 348 350
f 353 354 355
f 354 356 355
f 353 357 354
f 355 356 357
f 354 357 356
f 353 355 357
f 358 359 360
f 359 361 360
f 359 362 361
f 361 362 363
f 358 364 365
f 358 365 366
f 358 366 359
f 365 367 366
f 362 366 368
f 359 366 362
f 362 368 369
f 362 369 363
f 364 370 365
f 364 371 370
f 365 372 367
f 365 370 372
f 370 373 374
f 370 375 373
f 370 371 375
f 370 374 372
f 373 375 376
f 366 367 377
f 372 378 377
f 367 372 377
f 372 374 378
f 376 379 380
f 373 376 380
f 379 381 380
f 374 382 383
f 373 382 374
f 374 384 378
f 374 383 384
f 373 380 382
f 278 382 380
f 278 380 381
f 95 278 381
f 383 385 384
f 382 386 383
f 278 386 382
f 111 386 278
f 127 383 386
f 383 387 385
f 371 388 375
f 127 389 383
f 383 389 387
f 111 127 386
f 127 390 389
f 387 389 390
f 6 390 127
